<svg xmlns="http://www.w3.org/2000/svg" width="13" height="12" viewBox="0 0 13 12" fill="none">
<path d="M6.7666 8H6.2666V6H5.7666M6.2666 4H6.2716M10.7666 6C10.7666 6.59095 10.6502 7.17611 10.4241 7.72208C10.1979 8.26804 9.86645 8.76412 9.44858 9.18198C9.03072 9.59984 8.53464 9.93131 7.98868 10.1575C7.44271 10.3836 6.85755 10.5 6.2666 10.5C5.67565 10.5 5.09049 10.3836 4.54453 10.1575C3.99856 9.93131 3.50248 9.59984 3.08462 9.18198C2.66676 8.76412 2.33529 8.26804 2.10914 7.72208C1.883 7.17611 1.7666 6.59095 1.7666 6C1.7666 4.80653 2.24071 3.66193 3.08462 2.81802C3.92853 1.97411 5.07313 1.5 6.2666 1.5C7.46008 1.5 8.60467 1.97411 9.44858 2.81802C10.2925 3.66193 10.7666 4.80653 10.7666 6Z" stroke="#1D2433" stroke-opacity="0.65" stroke-linecap="round" stroke-linejoin="round"/>
</svg>